# xmcd
#
# Track frame offsets: 
#        150
#        11987
#        29242
#        43975
#        67409
#        92154
#        109102
#        122342
#        137626
#        156543
#        169855
#        184618
#        208265
#        226335
#        241259
#        262903
#        279865
#        298169
#
# Disc length: 4213 seconds
#
# Revision: 0
# Processed by: cddbd v1.5.2PL0 Copyright (c) Steve Scherf et al.
# Submitted via: ExactAudioCopy v1.0b3
#
DISCID=15107312
DTITLE=中村晃子 - 決定版 中村晃子 2014 KICX-4271
DYEAR=1900
DGENRE=JPop
TTITLE0=虹色の湖
TTITLE1=裸足のブルース 
TTITLE2=ガラスの城 
TTITLE3=恋の綱わたり 
TTITLE4=ホールド・ミー・タイト 
TTITLE5=めぐり逢わないのに 
TTITLE6=愛の終止符 
TTITLE7=薔薇の囁き 
TTITLE8=男嫌いのバラード 
TTITLE9=砂の十字架 
TTITLE10=だからタンゴで… 
TTITLE11=雨やどり夢やどり 
TTITLE12=白い椅子 
TTITLE13=ローマのともしび 
TTITLE14=ささやきの首飾り 
TTITLE15=ディオ・コメティ・アモ-愛の旋律-
TTITLE16=この愛に生きる 
TTITLE17=あまい囁き 
EXTD=
EXTT0=
EXTT1=
EXTT2=
EXTT3=
EXTT4=
EXTT5=
EXTT6=
EXTT7=
EXTT8=
EXTT9=
EXTT10=
EXTT11=
EXTT12=
EXTT13=
EXTT14=
EXTT15=
EXTT16=
EXTT17=
PLAYORDER=
